<svg width="1600" height="931" viewBox="0 0 1600 931" fill="none" xmlns="http://www.w3.org/2000/svg">
<g clip-path="url(#clip0)">
<rect y="0.000244141" width="1029" height="848" fill="#56CCF2"/>
<rect x="583" y="678.046" width="1107.84" height="600.608" transform="rotate(-65.0996 583 678.046)" fill="#56CCF2"/>
<g opacity="0.5">
<rect x="886.219" y="740.65" width="1128" height="298.234" rx="149.117" transform="rotate(-65 886.219 740.65)" fill="#56CCF2"/>
<rect x="886.219" y="740.65" width="1128" height="298.234" rx="149.117" transform="rotate(-65 886.219 740.65)" fill="url(#paint0_linear)" fill-opacity="0.25"/>
</g>
<g opacity="0.5">
<rect x="585" y="680.322" width="1128" height="298.234" rx="149.117" transform="rotate(-65 585 680.322)" fill="#56CCF2"/>
<rect x="585" y="680.322" width="1128" height="298.234" rx="149.117" transform="rotate(-65 585 680.322)" fill="url(#paint1_linear)" fill-opacity="0.25"/>
</g>
<rect x="1189.53" y="794.925" width="956.925" height="53.0179" rx="26.509" transform="rotate(-65 1189.53 794.925)" fill="#56CCF2"/>
<rect x="1189.53" y="794.925" width="956.925" height="53.0179" rx="26.509" transform="rotate(-65 1189.53 794.925)" fill="url(#paint2_linear)" fill-opacity="0.25"/>
</g>
<defs>
<linearGradient id="paint0_linear" x1="1450.22" y1="740.65" x2="1450.22" y2="1038.88" gradientUnits="userSpaceOnUse">
<stop stop-color="white"/>
<stop offset="1" stop-color="white" stop-opacity="0"/>
</linearGradient>
<linearGradient id="paint1_linear" x1="1149" y1="680.322" x2="1149" y2="978.556" gradientUnits="userSpaceOnUse">
<stop stop-color="white"/>
<stop offset="1" stop-color="white" stop-opacity="0"/>
</linearGradient>
<linearGradient id="paint2_linear" x1="1667.99" y1="794.925" x2="1667.99" y2="847.943" gradientUnits="userSpaceOnUse">
<stop stop-color="white"/>
<stop offset="1" stop-color="white" stop-opacity="0"/>
</linearGradient>
<clipPath id="clip0">
<rect width="1600" height="931" fill="white"/>
</clipPath>
</defs>
</svg>
