<svg width="32" height="37" viewBox="0 0 32 37" fill="none" xmlns="http://www.w3.org/2000/svg">
<path d="M32 5.71422V30.8571C32 32.7499 30.4643 34.2856 28.5714 34.2856H22.4786V21.6285H26.8071L27.4286 16.7999H22.4786V13.7142C22.4786 12.3142 22.8643 11.3642 24.8714 11.3642H27.4286V7.04993C26.9857 6.99279 25.4714 6.85707 23.7 6.85707C20.0143 6.85707 17.4857 9.10707 17.4857 13.2428V16.8071H13.1429V21.6356H17.4929V34.2856H3.42857C1.53571 34.2856 0 32.7499 0 30.8571V5.71422C0 3.82136 1.53571 2.28564 3.42857 2.28564H28.5714C30.4643 2.28564 32 3.82136 32 5.71422Z" fill="#3B5998"/>
</svg>
