<svg width="32" height="37" viewBox="0 0 32 37" fill="none" xmlns="http://www.w3.org/2000/svg">
<path d="M28.5714 2.28564H3.42857C1.53571 2.28564 0 3.82136 0 5.71422V30.8571C0 32.7499 1.53571 34.2856 3.42857 34.2856H28.5714C30.4643 34.2856 32 32.7499 32 30.8571V5.71422C32 3.82136 30.4643 2.28564 28.5714 2.28564ZM25.0786 13.6285C25.0929 13.8285 25.0929 14.0356 25.0929 14.2356C25.0929 20.4285 20.3786 27.5642 11.7643 27.5642C9.10714 27.5642 6.64286 26.7928 4.57143 25.4642C4.95 25.5071 5.31429 25.5214 5.7 25.5214C7.89286 25.5214 9.90714 24.7785 11.5143 23.5214C9.45714 23.4785 7.72857 22.1285 7.13571 20.2714C7.85714 20.3785 8.50714 20.3785 9.25 20.1856C7.10714 19.7499 5.5 17.8642 5.5 15.5856V15.5285C6.12143 15.8785 6.85 16.0928 7.61429 16.1214C6.97173 15.694 6.44499 15.1141 6.08105 14.4336C5.71711 13.7531 5.52731 12.9931 5.52857 12.2214C5.52857 11.3499 5.75714 10.5499 6.16429 9.85707C8.47143 12.6999 11.9357 14.5571 15.8214 14.7571C15.1571 11.5785 17.5357 8.99993 20.3929 8.99993C21.7429 8.99993 22.9571 9.56422 23.8143 10.4785C24.8714 10.2785 25.8857 9.88565 26.7857 9.34993C26.4357 10.4356 25.7 11.3499 24.7286 11.9285C25.6714 11.8285 26.5857 11.5642 27.4286 11.1999C26.7929 12.1356 25.9929 12.9642 25.0786 13.6285Z" fill="#1DA1F2"/>
</svg>
